<svg width="4" height="16" viewBox="0 0 4 16" fill="none" xmlns="http://www.w3.org/2000/svg">
<path d="M3.9846 11.5982C4.01064 11.7054 4.00022 11.8214 3.95855 11.9107L2.13564 15.3393C2.10439 15.3929 2.06272 15.4286 2.01585 15.4286C1.96897 15.4286 1.92209 15.3929 1.89085 15.3393L0.0418925 11.9107C0.000229735 11.8214 -0.0101882 11.7054 0.0158521 11.5982C0.0418925 11.5 0.0991867 11.4286 0.16689 11.4286H1.33356V0.285719C1.33356 0.125 1.40647 0 1.50023 0H2.50022C2.59397 0 2.66689 0.125 2.66689 0.285719V11.4286H3.83356C3.90127 11.4286 3.95855 11.4911 3.9846 11.5982Z" fill="white"/>
</svg>
